<?xml version="1.0" encoding="UTF-8"?>
<!DOCTYPE svg PUBLIC "-//W3C//DTD SVG 1.1//EN" "http://www.w3.org/Graphics/SVG/1.1/DTD/svg11.dtd">
<svg xmlns="http://www.w3.org/2000/svg" version="1.1" width="427px" height="427px" style="shape-rendering:geometricPrecision; text-rendering:geometricPrecision; image-rendering:optimizeQuality; fill-rule:evenodd; clip-rule:evenodd" xmlns:xlink="http://www.w3.org/1999/xlink">
<g><path style="opacity:0.006" fill="#fff8f4" d="M 213.5,5.5 C 218.566,4.2835 223.566,4.61684 228.5,6.5C 227.167,6.5 225.833,6.5 224.5,6.5C 223.5,6.5 222.5,6.5 221.5,6.5C 219.052,5.52693 216.385,5.1936 213.5,5.5 Z"/></g>
<g><path style="opacity:0.176" fill="#ffdac1" d="M 213.5,5.5 C 216.385,5.1936 219.052,5.52693 221.5,6.5C 215.384,6.26779 209.384,6.93446 203.5,8.5C 206.381,6.32003 209.714,5.32003 213.5,5.5 Z"/></g>
<g><path style="opacity:1" fill="#fe6701" d="M 221.5,6.5 C 222.5,6.5 223.5,6.5 224.5,6.5C 239.746,10.5785 249.579,20.2451 254,35.5C 254.5,94.4991 254.667,153.499 254.5,212.5C 253.908,215.127 253.575,217.794 253.5,220.5C 246.971,239.953 233.305,249.287 212.5,248.5C 209.495,246.723 206.162,245.723 202.5,245.5C 194.004,240.167 187.838,232.834 184,223.5C 182.855,191.199 182.355,158.866 182.5,126.5C 182.667,96.1667 182.833,65.8333 183,35.5C 185.994,23.4793 192.828,14.4793 203.5,8.5C 209.384,6.93446 215.384,6.26779 221.5,6.5 Z"/></g>
<g><path style="opacity:0.043" fill="#ffdcc6" d="M 224.5,6.5 C 225.833,6.5 227.167,6.5 228.5,6.5C 244.795,11.467 253.795,22.467 255.5,39.5C 255.832,97.3357 255.499,155.002 254.5,212.5C 254.667,153.499 254.5,94.4991 254,35.5C 249.579,20.2451 239.746,10.5785 224.5,6.5 Z"/></g>
<g><path style="opacity:0.019" fill="#fff9f6" d="M 255.5,39.5 C 256.665,97.9986 256.832,156.665 256,215.5C 255.721,218.457 254.887,221.123 253.5,223.5C 253.5,222.5 253.5,221.5 253.5,220.5C 253.575,217.794 253.908,215.127 254.5,212.5C 255.499,155.002 255.832,97.3357 255.5,39.5 Z"/></g>
<g><path style="opacity:0.072" fill="#eed6bd" d="M 203.5,8.5 C 192.828,14.4793 185.994,23.4793 183,35.5C 182.833,65.8333 182.667,96.1667 182.5,126.5C 182.355,158.866 182.855,191.199 184,223.5C 187.838,232.834 194.004,240.167 202.5,245.5C 190.028,239.934 182.861,230.267 181,216.5C 180.333,157.167 180.333,97.8333 181,38.5C 183.093,24.2654 190.593,14.2654 203.5,8.5 Z"/></g>
<g><path style="opacity:0.012" fill="#d5e3d2" d="M 154.5,70.5 C 151.327,69.8303 148.327,68.6636 145.5,67C 136.583,64.7073 127.917,65.2073 119.5,68.5C 124.211,65.322 129.544,63.9887 135.5,64.5C 142.784,63.8971 149.118,65.8971 154.5,70.5 Z"/></g>
<g><path style="opacity:1" fill="#156205" d="M 154.5,70.5 C 160.919,75.352 165.919,81.352 169.5,88.5C 173.283,104.981 168.949,118.814 156.5,130C 109.636,162.215 93.6363,205.715 108.5,260.5C 108.457,264.733 109.79,268.4 112.5,271.5C 114.126,277.419 116.793,282.753 120.5,287.5C 123.353,293.687 127.353,299.021 132.5,303.5C 137.334,310.5 143.334,316.334 150.5,321C 175.553,339.173 203.22,345.673 233.5,340.5C 238.575,340.351 243.575,339.685 248.5,338.5C 252.936,337.586 256.936,335.919 260.5,333.5C 281.896,324.951 299.396,311.284 313,292.5C 316.904,287.358 319.738,281.691 321.5,275.5C 342.56,228.17 335.56,185.337 300.5,147C 299.906,146.536 299.239,146.369 298.5,146.5C 295.002,142.169 291.002,138.336 286.5,135C 284.922,133.906 283.255,133.072 281.5,132.5C 264.421,118.853 260.588,102.186 270,82.5C 274.448,76.2132 279.948,71.2132 286.5,67.5C 298.494,63.8338 309.827,65.3338 320.5,72C 336.543,82.8743 350.877,95.7076 363.5,110.5C 373.183,123.866 381.85,137.866 389.5,152.5C 389.707,155.241 390.707,157.574 392.5,159.5C 392.402,161.553 393.069,163.22 394.5,164.5C 395.72,171.814 397.72,178.814 400.5,185.5C 401.256,193.884 402.423,202.217 404,210.5C 404.5,219.494 404.666,228.494 404.5,237.5C 396.101,315.491 356.101,370.324 284.5,402C 248.214,415.496 211.214,417.996 173.5,409.5C 170.063,408.055 166.397,407.055 162.5,406.5C 160.304,405.188 157.97,404.021 155.5,403C 153.866,402.506 152.199,402.34 150.5,402.5C 148.574,400.707 146.241,399.707 143.5,399.5C 142.713,397.896 141.38,397.229 139.5,397.5C 134.089,394.106 128.422,391.106 122.5,388.5C 114.508,382.836 106.508,377.169 98.5,371.5C 81.1777,355.688 66.6777,337.688 55,317.5C 43.4727,295.367 35.9727,272.034 32.5,247.5C 30.0533,224.882 31.5533,202.549 37,180.5C 39.508,172.458 42.008,164.458 44.5,156.5C 57.2909,129.187 74.9575,105.354 97.5,85C 104.723,79.236 112.056,73.736 119.5,68.5C 127.917,65.2073 136.583,64.7073 145.5,67C 148.327,68.6636 151.327,69.8303 154.5,70.5 Z"/></g>
<g><path style="opacity:0.204" fill="#dee9dc" d="M 154.5,70.5 C 162.319,74.1324 167.319,80.1324 169.5,88.5C 165.919,81.352 160.919,75.352 154.5,70.5 Z"/></g>
<g><path style="opacity:0.275" fill="#d6e4d3" d="M 363.5,110.5 C 350.877,95.7076 336.543,82.8743 320.5,72C 309.827,65.3338 298.494,63.8338 286.5,67.5C 287.842,66.207 289.509,65.3736 291.5,65C 300.977,63.4165 309.977,64.7498 318.5,69C 336.223,79.8902 351.223,93.7236 363.5,110.5 Z"/></g>
<g><path style="opacity:0.122" fill="#d8e5d5" d="M 286.5,67.5 C 279.948,71.2132 274.448,76.2132 270,82.5C 260.588,102.186 264.421,118.853 281.5,132.5C 274.848,129.347 270.015,124.347 267,117.5C 259.613,99.2157 263.446,83.7157 278.5,71C 280.818,69.0073 283.484,67.8406 286.5,67.5 Z"/></g>
<g><path style="opacity:0.082" fill="#e1ebdf" d="M 363.5,110.5 C 366.45,112.621 368.95,115.287 371,118.5C 378.675,129.009 384.841,140.343 389.5,152.5C 381.85,137.866 373.183,123.866 363.5,110.5 Z"/></g>
<g><path style="opacity:0.169" fill="#d0e0cd" d="M 169.5,88.5 C 174.987,103.734 171.987,117.234 160.5,129C 113.116,160.53 95.7827,204.363 108.5,260.5C 93.6363,205.715 109.636,162.215 156.5,130C 168.949,118.814 173.283,104.981 169.5,88.5 Z"/></g>
<g><path style="opacity:0.102" fill="#e0eade" d="M 281.5,132.5 C 283.255,133.072 284.922,133.906 286.5,135C 291.002,138.336 295.002,142.169 298.5,146.5C 292.272,142.548 286.606,137.881 281.5,132.5 Z"/></g>
<g><path style="opacity:0.149" fill="#d1e0cd" d="M 119.5,68.5 C 112.056,73.736 104.723,79.236 97.5,85C 74.9575,105.354 57.2909,129.187 44.5,156.5C 51.6128,138.222 61.4461,121.556 74,106.5C 84.23,95.6005 95.0634,85.4339 106.5,76C 110.562,72.9711 114.895,70.4711 119.5,68.5 Z"/></g>
<g><path style="opacity:0.09" fill="#e3ece1" d="M 389.5,152.5 C 391.293,154.426 392.293,156.759 392.5,159.5C 390.707,157.574 389.707,155.241 389.5,152.5 Z"/></g>
<g><path style="opacity:0.071" fill="#e7efe6" d="M 392.5,159.5 C 393.931,160.78 394.598,162.447 394.5,164.5C 393.069,163.22 392.402,161.553 392.5,159.5 Z"/></g>
<g><path style="opacity:0.541" fill="#c9dbc5" d="M 394.5,164.5 C 397.686,171.069 399.686,178.069 400.5,185.5C 397.72,178.814 395.72,171.814 394.5,164.5 Z"/></g>
<g><path style="opacity:0.063" fill="#d0dfcd" d="M 298.5,146.5 C 299.239,146.369 299.906,146.536 300.5,147C 335.56,185.337 342.56,228.17 321.5,275.5C 340.63,227.44 332.963,184.44 298.5,146.5 Z"/></g>
<g><path style="opacity:0.124" fill="#e0eade" d="M 44.5,156.5 C 42.008,164.458 39.508,172.458 37,180.5C 31.5533,202.549 30.0533,224.882 32.5,247.5C 32.5,249.5 32.5,251.5 32.5,253.5C 28.735,227.335 30.235,201.335 37,175.5C 39.0063,168.844 41.5063,162.51 44.5,156.5 Z"/></g>
<g><path style="opacity:0.138" fill="#e5ede3" d="M 400.5,185.5 C 404.21,199.11 406.21,213.11 406.5,227.5C 406.155,233.685 405.489,239.685 404.5,245.5C 404.5,242.833 404.5,240.167 404.5,237.5C 404.666,228.494 404.5,219.494 404,210.5C 402.423,202.217 401.256,193.884 400.5,185.5 Z"/></g>
<g><path style="opacity:0.078" fill="#fee5d4" d="M 253.5,220.5 C 253.5,221.5 253.5,222.5 253.5,223.5C 247.631,240.049 235.797,249.049 218,250.5C 215.6,250.198 213.434,249.532 211.5,248.5C 211.833,248.5 212.167,248.5 212.5,248.5C 233.305,249.287 246.971,239.953 253.5,220.5 Z"/></g>
<g><path style="opacity:0.745" fill="#ecc29a" d="M 202.5,245.5 C 206.162,245.723 209.495,246.723 212.5,248.5C 212.167,248.5 211.833,248.5 211.5,248.5C 208.084,248.472 205.084,247.472 202.5,245.5 Z"/></g>
<g><path style="opacity:0.086" fill="#d7e4d5" d="M 108.5,260.5 C 110.069,263.992 111.402,267.659 112.5,271.5C 109.79,268.4 108.457,264.733 108.5,260.5 Z"/></g>
<g><path style="opacity:0.114" fill="#e2ece0" d="M 112.5,271.5 C 115.696,276.558 118.362,281.891 120.5,287.5C 116.793,282.753 114.126,277.419 112.5,271.5 Z"/></g>
<g><path style="opacity:0.086" fill="#e1ebdf" d="M 120.5,287.5 C 124.878,292.545 128.878,297.878 132.5,303.5C 127.353,299.021 123.353,293.687 120.5,287.5 Z"/></g>
<g><path style="opacity:0.243" fill="#d9e5d6" d="M 321.5,275.5 C 319.738,281.691 316.904,287.358 313,292.5C 299.396,311.284 281.896,324.951 260.5,333.5C 287.335,320.998 307.668,301.665 321.5,275.5 Z"/></g>
<g><path style="opacity:0.137" fill="#d0e0cd" d="M 132.5,303.5 C 160.097,331.816 193.764,344.149 233.5,340.5C 203.22,345.673 175.553,339.173 150.5,321C 143.334,316.334 137.334,310.5 132.5,303.5 Z"/></g>
<g><path style="opacity:0.165" fill="#d2e1ce" d="M 32.5,247.5 C 35.9727,272.034 43.4727,295.367 55,317.5C 66.6777,337.688 81.1777,355.688 98.5,371.5C 61.5363,340.94 39.5363,301.607 32.5,253.5C 32.5,251.5 32.5,249.5 32.5,247.5 Z"/></g>
<g><path style="opacity:0.533" fill="#b0caaa" d="M 260.5,333.5 C 256.936,335.919 252.936,337.586 248.5,338.5C 248.5,338.167 248.5,337.833 248.5,337.5C 252.315,335.873 256.315,334.54 260.5,333.5 Z"/></g>
<g><path style="opacity:0.027" fill="#e7efe6" d="M 248.5,337.5 C 248.5,337.833 248.5,338.167 248.5,338.5C 243.575,339.685 238.575,340.351 233.5,340.5C 238.304,339.139 243.304,338.139 248.5,337.5 Z"/></g>
<g><path style="opacity:0.059" fill="#dde8db" d="M 98.5,371.5 C 106.508,377.169 114.508,382.836 122.5,388.5C 113.413,384.42 105.413,378.754 98.5,371.5 Z"/></g>
<g><path style="opacity:0.082" fill="#e0eade" d="M 122.5,388.5 C 128.422,391.106 134.089,394.106 139.5,397.5C 133.076,395.79 127.409,392.79 122.5,388.5 Z"/></g>
<g><path style="opacity:0.047" fill="#d8e5d5" d="M 404.5,237.5 C 404.5,240.167 404.5,242.833 404.5,245.5C 395.916,311.532 362.916,361.032 305.5,394C 263.337,415.888 219.337,421.054 173.5,409.5C 211.214,417.996 248.214,415.496 284.5,402C 356.101,370.324 396.101,315.491 404.5,237.5 Z"/></g>
<g><path style="opacity:0.027" fill="#e6eee4" d="M 139.5,397.5 C 141.38,397.229 142.713,397.896 143.5,399.5C 141.62,399.771 140.287,399.104 139.5,397.5 Z"/></g>
<g><path style="opacity:0.059" fill="#e9f0e8" d="M 143.5,399.5 C 146.241,399.707 148.574,400.707 150.5,402.5C 147.759,402.293 145.426,401.293 143.5,399.5 Z"/></g>
<g><path style="opacity:0.035" fill="#d4e2d1" d="M 150.5,402.5 C 152.199,402.34 153.866,402.506 155.5,403C 157.97,404.021 160.304,405.188 162.5,406.5C 158.098,406.074 154.098,404.74 150.5,402.5 Z"/></g>
<g><path style="opacity:0.027" fill="#e3ece2" d="M 162.5,406.5 C 166.397,407.055 170.063,408.055 173.5,409.5C 169.43,409.568 165.763,408.568 162.5,406.5 Z"/></g>
</svg>
